<svg xmlns="http://www.w3.org/2000/svg" style="display:none">
  <symbol id="x" viewBox="0 0 24 24">
    <path d="M4 4h4.6l3.4 5.2L16.5 4H20l-6.2 8.1L20 20h-4.6l-4-6-5 6H4l6.8-8.9z"/>
  </symbol>
  <symbol id="youtube" viewBox="0 0 24 24">
    <path d="M23 7s-.2-1.6-.8-2.3c-.7-.8-1.6-.8-2-0.9C17.6 3.3 12 3.3 12 3.3S6.4 3.3 3.8 3.8c-.5.1-1.4.2-2 .9C1.2 5.4 1 7 1 7s-.2 1.7-.2 3.3v1.4C.8 13.3 1 15 1 15s.2 1.6.8 2.3c.7.8 1.6.8 2 .9 2.6.5 8.2.5 8.2.5s5.6 0 8.2-.5c.5-.1 1.4-.2 2-.9.6-.7.8-2.3.8-2.3s.2-1.7.2-3.3V10.3C23.2 8.7 23 7 23 7zM9.8 13.4V7.9l5.6 2.7-5.6 2.8z"/>
  </symbol>
  <symbol id="vrchat" viewBox="0 0 24 24">
    <path d="M3 6a3 3 0 0 1 3-3h12a3 3 0 0 1 3 3v7a3 3 0 0 1-3 3h-5l-4 4v-4H6a3 3 0 0 1-3-3V6z"/>
  </symbol>
</svg>
